# xmcd
#
# Track frame offsets: 
#        150
#        25580
#        39062
#        58465
#        105207
#        131647
#        148857
#        172402
#        185275
#        203152
#        217637
#        238950
#        256027
#
# Disc length: 3719 seconds
#
# Revision: 0
# Processed by: cddbd v1.5.2PL0 Copyright (c) Steve Scherf et al.
# Submitted via: ExactAudioCopy v0.99pb3
#
DISCID=b30e850d
DTITLE=Soul Proprietors - Too Cool To Be Hip
DYEAR=1996
DGENRE=Blues
TTITLE0=My Resignation
TTITLE1=Run Away With Me
TTITLE2=Lovin' Cup
TTITLE3=Last Night
TTITLE4=Gizzards and Beans
TTITLE5=The Brugie
TTITLE6=Controlled Conditions
TTITLE7=Juke
TTITLE8=Wild Women Don't Have the Blues
TTITLE9=Next Time You See Me
TTITLE10=The Fossil
TTITLE11=Thats News To Me
TTITLE12=Buzzin' Out
EXTD=
EXTT0=
EXTT1=
EXTT2=
EXTT3=
EXTT4=
EXTT5=
EXTT6=
EXTT7=
EXTT8=
EXTT9=
EXTT10=
EXTT11=
EXTT12=
PLAYORDER=
